<?xml version="1.0" encoding="UTF-8"?>
<svg width="109px" height="129px" viewBox="0 0 218 257" version="1.1" xmlns="http://www.w3.org/2000/svg" xmlns:xlink="http://www.w3.org/1999/xlink">
    <!-- Generator: Sketch 48.2 (47327) - http://www.bohemiancoding.com/sketch -->
    <title>menu-logo</title>
    <desc>Created with Sketch.</desc>
    <defs></defs>
    <g id="Page-1" stroke="none" stroke-width="1" fill="none" fill-rule="evenodd">
        <g id="menu-logo" transform="translate(-46.000000, -45.000000)" fill-rule="nonzero">
            <g id="Group_613" transform="translate(49.000000, 268.000000)" fill="#FFFFFF">
                <polygon id="Path_220" points="9.99798319 7.0525 0 7.0525 0 0.37975 27.2514958 0.37975 27.2514958 7.0525 17.211563 7.0525 17.211563 33.27975 9.99798319 33.27975"></polygon>
                <polygon id="Path_221" points="30.5427899 0.37975 55.3472269 0.37975 55.3472269 6.8005 37.7563697 6.8005 37.7563697 13.47325 53.2392605 13.47325 53.2392605 19.89225 37.7563697 19.89225 37.7563697 26.86075 55.6006723 26.86075 55.6006723 33.27975 30.5847395 33.27975 30.5847395 0.37975"></polygon>
                <path d="M58.3011765,28.50925 L62.5625546,23.39925 C65.2463571,25.8836887 68.7389853,27.3094038 72.3927395,27.412 C75.3449412,27.412 77.1120672,26.229 77.1120672,24.3285 L77.1120672,24.2445 C77.1120672,22.428 75.972437,21.45675 70.4892773,20.06375 C63.8664874,18.375 59.6051092,16.56375 59.6051092,10.01175 L59.6051092,9.92775 C59.6051092,3.97775 64.4135798,0.00175 71.1220168,0.00175 C75.5476893,-0.0656810884 79.8585813,1.41261271 83.3136134,4.1825 L79.5591261,9.54625 C77.0994529,7.61820571 74.112529,6.48425164 70.9944202,6.29475 C68.2100168,6.29475 66.7749916,7.56175 66.7749916,9.1665 L66.7749916,9.2505 C66.7749916,11.40475 68.1733109,12.12225 73.8627227,13.559 C80.5274622,15.2915 84.2819496,17.69775 84.2819496,23.443 L84.2819496,23.527 C84.2819496,30.07375 79.3039328,33.74875 72.2214454,33.74875 C67.0979323,33.763071 62.146368,31.899334 58.3011765,28.50925 Z" id="Path_222"></path>
                <polygon id="Path_223" points="96.3948908 7.0525 86.3969076 7.0525 86.3969076 0.37975 113.648403 0.37975 113.648403 7.0525 103.65042 7.0525 103.65042 33.27975 96.4368403 33.27975 96.4368403 7.0525"></polygon>
                <polygon id="Path_224" points="116.939697 0.37975 123.604437 0.37975 139.001681 20.6535 139.001681 0.37975 146.129613 0.37975 146.129613 33.27975 139.970017 33.27975 124.064134 12.3725 124.064134 33.27975 116.939697 33.27975"></polygon>
                <polygon id="Path_225" points="152.712202 0.37975 177.516639 0.37975 177.516639 6.8005 159.925782 6.8005 159.925782 13.47325 175.408672 13.47325 175.408672 19.89225 159.925782 19.89225 159.925782 26.86075 177.770084 26.86075 177.770084 33.27975 152.754151 33.27975 152.754151 0.37975"></polygon>
                <polygon id="Path_226" points="190.258824 7.0525 180.26084 7.0525 180.26084 0.37975 207.512336 0.37975 207.512336 7.0525 197.514353 7.0525 197.514353 33.27975 190.300773 33.27975 190.300773 7.0525"></polygon>
            </g>
            <g id="Group-2-Copy-4">
                <g id="Group" transform="translate(156.118523, 156.203807) rotate(45.000000) translate(-156.118523, -156.203807) translate(47.118523, 45.703807)">
                    <rect id="Rectangle-10-Copy" fill="#8539DD" x="62.9" y="0.4" width="76.5" height="219.7"></rect>
                    <rect id="Rectangle-10-Copy-3" fill="#2F9BC2" transform="translate(178.184696, 105.471444) rotate(89.999855) translate(-178.184696, -105.471444) " x="139.934696" y="66.5714438" width="76.5" height="77.8"></rect>
                    <rect id="Rectangle-10-Copy-3_1_" fill="#8539DD" transform="translate(69.911821, 105.494344) rotate(89.999855) translate(-69.911821, -105.494344) " x="31.6618213" y="36.5443437" width="76.5" height="137.9"></rect>
                </g>
                <rect id="Rectangle-9-Copy" fill="#FFFFFF" x="87.4" y="87.3" width="44.2" height="131.2"></rect>
                <polygon id="Rectangle-9-Copy-4" fill="#FFFFFF" points="205 129.6 205 174.3 95.7 174.3 95.7 129.6"></polygon>
                <rect id="Rectangle-9-Copy-5" fill="#FFFFFF" x="176.6" y="87.3" width="44.2" height="131.2"></rect>
            </g>
        </g>
    </g>
</svg>
